<?xml version="1.0" encoding="UTF-8"?><svg id="Capa_1" xmlns="http://www.w3.org/2000/svg" viewBox="0 0 249.36 221.76"><defs><style>.cls-1{fill:#020202;}.cls-2{fill:#030303;}.cls-3{fill:#fdfdfd;}.cls-4{fill:#010101;}</style></defs><path class="cls-3" d="M.02,179.07C.02,119.77,.03,60.47,0,1.18,0,.23,.15,0,1.15,0,40.45,.03,79.75,.03,119.04,.03c.02,.58-.52,.52-.82,.7-1.03,.62-1.49,1.7-1.19,2.86,.27,1.03,1.21,1.75,2.29,1.77,1,.02,2.04-.74,2.37-1.71,.35-1.06-.06-2.09-1.05-2.8-.32-.23-.9-.21-.89-.81C162.59,.03,205.43,.03,248.26,0c.9,0,1.1,.2,1.1,1.1-.02,68.35-.02,136.7-.02,205.04-.63-.02-.62-.64-.88-.99-.9-1.2-2.25-1.79-3.54-1.47-1.5,.37-2.26,1.42-2.55,2.86-.23,1.18,.47,2.56,1.59,3.24,1.45,.87,3.34,.47,4.39-.9,.29-.38,.33-1.02,.99-1.06,0,4.39-.01,8.79,.02,13.18,0,.6-.14,.84-.74,.72-.12-.02-.24,0-.36,0-82.38,0-164.77,0-247.15,.02-.9,0-1.11-.2-1.1-1.1,.03-13.3,.02-26.6,.02-39.91,.48-.09,.57,.35,.78,.6,.97,1.16,2.55,1.37,3.58,.45,1.06-.94,1.11-2.62,.12-3.62-1.01-1.01-2.65-.87-3.69,.3-.22,.25-.31,.68-.79,.6Z"/><path d="M249.34,207.83c-.8,1.6-1.87,2.84-3.87,2.73-1.83-.1-3.19-1.4-3.41-3.23-.21-1.72,.85-3.34,2.53-3.84,1.76-.53,3.48,.22,4.34,1.84,.14,.27,.09,.64,.41,.82v1.68Z"/><path class="cls-4" d="M119.76,.03c.95,.47,1.92,.89,2.24,2.08,.38,1.41-.34,2.95-1.68,3.41-1.39,.48-2.92-.18-3.5-1.5-.59-1.35-.03-2.88,1.27-3.58,.31-.17,.73-.06,.95-.41h.72Z"/><path class="cls-4" d="M.02,179.07c.27-.02,.23-.28,.33-.43,.74-1.17,1.94-1.7,3.16-1.36,1.28,.36,2.07,1.41,2.03,2.75-.03,1.21-.82,2.26-1.95,2.59-1.27,.36-2.53-.18-3.25-1.4-.1-.16-.21-.31-.31-.47,0-.56,0-1.12,0-1.68Z"/><path d="M182.13,178.11c-2.45,0-4.33-1.85-4.33-4.28,0-2.42,1.88-4.34,4.29-4.35,2.4,0,4.34,1.91,4.35,4.3,0,2.42-1.88,4.32-4.3,4.32Z"/><path d="M218.18,173.83c0,2.43-1.88,4.28-4.33,4.28-2.41,0-4.32-1.94-4.3-4.33,.02-2.4,1.96-4.31,4.36-4.3,2.42,.01,4.28,1.91,4.28,4.35Z"/><path d="M224.41,178.11c-2.38-.02-4.35-2.03-4.3-4.37,.05-2.38,2.04-4.29,4.43-4.26,2.38,.03,4.33,2.03,4.28,4.39-.06,2.41-1.98,4.26-4.41,4.24Z"/><path d="M235.07,178.11c-2.43,0-4.32-1.87-4.33-4.3,0-2.39,1.92-4.32,4.32-4.33,2.4,0,4.32,1.92,4.32,4.32,0,2.44-1.88,4.31-4.31,4.31Z"/><path d="M160.83,178.11c-2.41-.03-4.28-1.96-4.24-4.38,.04-2.4,2-4.28,4.4-4.24,2.39,.04,4.29,2.02,4.24,4.41-.05,2.43-1.95,4.24-4.4,4.22Z"/><path d="M171.52,178.11c-2.43,0-4.32-1.87-4.33-4.3-.01-2.4,1.92-4.33,4.32-4.33,2.38,0,4.36,1.96,4.37,4.32,0,2.37-1.95,4.31-4.35,4.31Z"/><path d="M150.66,188.93c-2.29,.02-4.1-1.74-4.14-4.04-.04-2.25,1.79-4.12,4.05-4.15,2.25-.03,4.11,1.79,4.14,4.06,.03,2.27-1.77,4.11-4.05,4.13Z"/><path d="M207.38,184.88c-.02,2.28-1.84,4.07-4.13,4.05-2.28-.02-4.08-1.84-4.07-4.11,.01-2.24,1.89-4.09,4.13-4.07,2.26,.01,4.08,1.87,4.06,4.13Z"/><path d="M188.59,184.81c.01-2.32,1.79-4.08,4.09-4.07,2.24,.02,4.09,1.9,4.07,4.15-.02,2.26-1.86,4.06-4.14,4.04-2.31-.02-4.03-1.78-4.01-4.12Z"/><path d="M150.61,199.72c-2.21,0-3.86-1.66-3.85-3.86,.01-2.16,1.73-3.83,3.92-3.81,2.09,.02,3.82,1.74,3.83,3.82,.02,2.14-1.72,3.85-3.91,3.85Z"/><path d="M224.4,199.72c-2.11-.03-3.8-1.71-3.81-3.8-.02-2.11,1.76-3.87,3.9-3.86,2.15,0,3.88,1.75,3.86,3.89-.03,2.17-1.73,3.8-3.94,3.77Z"/><path d="M235.01,199.72c-2.16-.02-3.78-1.64-3.79-3.79-.01-2.19,1.67-3.88,3.84-3.88,2.19,0,3.85,1.67,3.84,3.87-.01,2.21-1.66,3.82-3.89,3.8Z"/><path d="M217.7,195.85c.02,2.24-1.59,3.86-3.81,3.87-2.21,0-3.87-1.65-3.86-3.84,0-2.12,1.66-3.79,3.78-3.83,2.2-.04,3.88,1.6,3.9,3.8Z"/><path d="M150.63,210.58c-2.01,.02-3.64-1.62-3.64-3.65,0-1.99,1.56-3.58,3.54-3.62,2-.03,3.72,1.61,3.74,3.58,.02,1.98-1.64,3.67-3.64,3.69Z"/><path d="M192.64,210.58c-2.01,0-3.66-1.66-3.65-3.67,.01-2,1.69-3.63,3.7-3.6,1.98,.03,3.55,1.61,3.57,3.6,.03,2.01-1.61,3.67-3.63,3.67Z"/><path d="M225,214.58c1.87,.03,3.4,1.62,3.34,3.5-.05,1.86-1.54,3.3-3.4,3.3-1.93,0-3.41-1.5-3.39-3.41,.02-1.9,1.56-3.41,3.45-3.38Z"/><path d="M164.75,217.97c0,1.93-1.47,3.41-3.4,3.4-1.9,0-3.42-1.54-3.4-3.43,.02-1.83,1.53-3.34,3.36-3.36,1.89-.03,3.43,1.49,3.44,3.39Z"/><path d="M174.91,217.99c0,1.91-1.51,3.4-3.43,3.38-1.91-.01-3.4-1.53-3.37-3.45,.03-1.84,1.53-3.32,3.36-3.34,1.87-.02,3.43,1.52,3.43,3.41Z"/><path d="M238.9,218.05c-.02,1.92-1.52,3.37-3.47,3.33-1.82-.04-3.35-1.59-3.33-3.39,.01-1.85,1.61-3.43,3.45-3.4,1.91,.02,3.36,1.53,3.34,3.47Z"/><path d="M211.43,218.02c-.01-1.92,1.46-3.43,3.37-3.44,1.88-.01,3.4,1.52,3.39,3.43,0,1.87-1.45,3.33-3.32,3.36-1.94,.03-3.43-1.42-3.44-3.35Z"/><path d="M178.75,217.93c.02-1.91,1.55-3.41,3.44-3.35,1.83,.05,3.32,1.59,3.32,3.4,0,1.89-1.53,3.41-3.43,3.39-1.94-.02-3.35-1.47-3.33-3.44Z"/><path class="cls-4" d="M119.42,159.41c-1.65,.02-2.98-1.24-3.01-2.88-.04-1.7,1.28-3.08,2.95-3.07,1.59,0,2.98,1.37,3,2.96,.02,1.59-1.34,2.97-2.94,2.99Z"/><path class="cls-4" d="M101.65,48.71c-.02,1.54-1.19,2.71-2.73,2.72-1.54,.01-2.81-1.28-2.79-2.81,.03-1.53,1.22-2.69,2.76-2.69,1.63,0,2.78,1.16,2.76,2.78Z"/><path class="cls-4" d="M64.81,45.93c1.61,0,2.78,1.18,2.76,2.79-.02,1.52-1.22,2.71-2.74,2.72-1.54,0-2.81-1.29-2.78-2.82,.03-1.54,1.21-2.69,2.76-2.69Z"/><path class="cls-4" d="M108.48,35.87c-.03,1.51-1.26,2.71-2.77,2.7-1.56,0-2.78-1.26-2.75-2.83,.03-1.58,1.27-2.74,2.88-2.68,1.52,.05,2.67,1.27,2.64,2.81Z"/><path class="cls-4" d="M128.92,42.35c0,1.54-1.18,2.72-2.71,2.74-1.57,.02-2.82-1.22-2.81-2.78,.01-1.56,1.28-2.77,2.85-2.74,1.53,.04,2.68,1.23,2.67,2.78Z"/><path class="cls-4" d="M130.23,35.72c.01-1.56,1.28-2.78,2.84-2.73,1.49,.05,2.72,1.31,2.7,2.78-.02,1.53-1.33,2.78-2.87,2.73-1.52-.05-2.69-1.27-2.68-2.78Z"/><path class="cls-4" d="M71.69,38.62c-1.62,.01-2.81-1.16-2.79-2.75,.01-1.52,1.19-2.72,2.71-2.75,1.52-.03,2.82,1.26,2.81,2.79,0,1.53-1.18,2.7-2.72,2.71Z"/><path class="cls-4" d="M119.3,6.74c1.59-.02,2.82,1.17,2.82,2.74,0,1.5-1.2,2.74-2.7,2.77-1.55,.03-2.82-1.21-2.81-2.77,0-1.54,1.16-2.72,2.7-2.74Z"/><path class="cls-4" d="M71.6,25.47c-1.54-.01-2.7-1.18-2.71-2.72,0-1.57,1.25-2.83,2.79-2.79,1.51,.03,2.72,1.26,2.73,2.76,.01,1.58-1.2,2.77-2.81,2.76Z"/><path class="cls-4" d="M111.43,182.7c-1.6-.02-2.74-1.22-2.71-2.84,.03-1.52,1.25-2.69,2.77-2.66,1.56,.02,2.8,1.3,2.74,2.84-.05,1.5-1.29,2.68-2.8,2.66Z"/><path class="cls-4" d="M164.35,42.16c.03-1.54,1.21-2.71,2.73-2.7,1.54,.02,2.83,1.33,2.78,2.84-.05,1.5-1.27,2.67-2.81,2.67-1.63,0-2.74-1.15-2.71-2.81Z"/><path class="cls-4" d="M119.36,45.09c-1.6,0-2.79-1.2-2.76-2.79,.02-1.51,1.24-2.71,2.75-2.72,1.5,0,2.74,1.21,2.77,2.7,.03,1.57-1.18,2.81-2.76,2.81Z"/><path class="cls-4" d="M130.23,48.69c-.01-1.55,1.12-2.72,2.67-2.76,1.59-.04,2.85,1.15,2.87,2.71,.02,1.52-1.29,2.82-2.82,2.8-1.5-.02-2.71-1.24-2.72-2.74Z"/><path class="cls-4" d="M164.35,48.63c0-1.59,1.1-2.69,2.69-2.71,1.57-.02,2.86,1.24,2.82,2.77-.03,1.49-1.27,2.72-2.76,2.74-1.57,.03-2.76-1.18-2.75-2.8Z"/><path class="cls-4" d="M164.35,22.47c.02-1.55,1.19-2.74,2.71-2.74,1.49,0,2.84,1.36,2.81,2.83-.04,1.57-1.27,2.71-2.9,2.68-1.55-.03-2.64-1.18-2.62-2.77Z"/><path class="cls-4" d="M112.55,31.95c-1.62,0-2.77-1.17-2.74-2.79,.02-1.51,1.24-2.72,2.74-2.72,1.52,0,2.8,1.31,2.78,2.84-.03,1.51-1.23,2.67-2.77,2.67Z"/><path class="cls-4" d="M81.21,48.64c0,1.56-1.25,2.82-2.79,2.8-1.49-.02-2.74-1.27-2.75-2.75-.02-1.55,1.23-2.78,2.82-2.76,1.56,.01,2.71,1.16,2.72,2.71Z"/><path class="cls-4" d="M119.34,18.78c-1.55,0-2.72-1.16-2.74-2.69-.02-1.55,1.24-2.85,2.77-2.84,1.47,.01,2.73,1.27,2.75,2.75,.02,1.59-1.18,2.78-2.78,2.78Z"/><path class="cls-4" d="M109.8,35.81c0-1.61,1.16-2.76,2.79-2.75,1.53,.01,2.72,1.2,2.73,2.71,0,1.53-1.3,2.82-2.82,2.8-1.5-.02-2.69-1.24-2.7-2.76Z"/><path class="cls-4" d="M119.41,19.88c1.53,.02,2.72,1.21,2.72,2.73,0,1.56-1.26,2.81-2.81,2.78-1.52-.03-2.7-1.23-2.7-2.76,0-1.59,1.21-2.78,2.8-2.75Z"/><path class="cls-4" d="M128.92,22.64c0,1.52-1.2,2.73-2.71,2.75-1.53,.02-2.81-1.26-2.81-2.81,0-1.56,1.24-2.73,2.85-2.7,1.54,.03,2.67,1.2,2.66,2.76Z"/><path class="cls-4" d="M119.19,31.94c-1.56-.07-2.69-1.36-2.58-2.97,.1-1.49,1.41-2.64,2.91-2.54,1.5,.09,2.65,1.36,2.6,2.87-.05,1.56-1.33,2.71-2.93,2.64Z"/><path class="cls-4" d="M128.92,29.17c0,1.53-1.17,2.74-2.68,2.76-1.57,.03-2.83-1.19-2.84-2.74,0-1.55,1.26-2.78,2.82-2.76,1.53,.02,2.69,1.2,2.7,2.74Z"/><path class="cls-4" d="M164.35,29.11c0-1.59,1.09-2.73,2.64-2.76,1.59-.03,2.86,1.17,2.87,2.72,.02,1.5-1.31,2.81-2.84,2.79-1.52-.02-2.67-1.21-2.68-2.75Z"/><path class="cls-4" d="M116.6,35.84c-.03-1.55,1.1-2.74,2.63-2.79,1.63-.05,2.85,1.07,2.89,2.66,.04,1.52-1.25,2.85-2.76,2.85-1.48,0-2.73-1.24-2.76-2.73Z"/><path class="cls-4" d="M164.35,35.53c.04-1.53,1.25-2.67,2.79-2.63,1.5,.04,2.73,1.3,2.73,2.76,0,1.53-1.3,2.78-2.86,2.75-1.58-.03-2.7-1.24-2.65-2.88Z"/><path class="cls-4" d="M71.66,26.59c1.56,0,2.73,1.14,2.75,2.68,.03,1.52-1.27,2.84-2.78,2.83-1.54,0-2.77-1.29-2.74-2.86,.03-1.54,1.19-2.65,2.76-2.65Z"/><path class="cls-4" d="M176.63,48.71c-.02,1.53-1.21,2.7-2.74,2.71-1.53,0-2.81-1.28-2.78-2.82,.03-1.51,1.24-2.68,2.77-2.68,1.61,0,2.77,1.18,2.75,2.79Z"/><path class="cls-4" d="M74.41,48.65c0,1.55-1.28,2.8-2.82,2.77-1.52-.03-2.69-1.22-2.7-2.75,0-1.58,1.2-2.77,2.8-2.75,1.52,.02,2.72,1.22,2.72,2.72Z"/><path class="cls-4" d="M112.58,25.39c-1.6,.01-2.78-1.17-2.78-2.78,0-1.55,1.17-2.72,2.7-2.73,1.55-.01,2.82,1.24,2.81,2.78-.01,1.51-1.22,2.71-2.73,2.73Z"/><path class="cls-4" d="M112.5,45.12c-1.53-.02-2.69-1.19-2.7-2.74,0-1.59,1.22-2.82,2.78-2.79,1.5,.02,2.72,1.25,2.73,2.75,.01,1.55-1.25,2.8-2.81,2.78Z"/><path class="cls-4" d="M108.48,48.7c-.02,1.5-1.25,2.72-2.74,2.73-1.55,0-2.79-1.25-2.77-2.81,.02-1.57,1.26-2.74,2.86-2.69,1.53,.05,2.68,1.25,2.66,2.78Z"/><path class="cls-4" d="M137.04,48.6c.03-1.51,1.23-2.67,2.76-2.67,1.6,0,2.79,1.21,2.76,2.79-.03,1.51-1.25,2.71-2.75,2.71-1.53,0-2.79-1.29-2.76-2.83Z"/><path class="cls-4" d="M128.92,35.74c.01,1.55-1.13,2.73-2.67,2.76-1.59,.03-2.84-1.16-2.85-2.72-.01-1.5,1.19-2.74,2.69-2.79,1.55-.04,2.82,1.18,2.83,2.74Z"/><path d="M74.41,42.46c0,1.56-1.25,2.77-2.83,2.75-1.52-.03-2.69-1.23-2.69-2.75,0-1.57,1.25-2.79,2.82-2.76,1.51,.03,2.7,1.26,2.7,2.76Z"/><path class="cls-4" d="M160.28,45.93c1.55,.01,2.71,1.16,2.72,2.7,0,1.58-1.21,2.82-2.77,2.8-1.5-.02-2.72-1.24-2.75-2.73-.02-1.54,1.23-2.78,2.8-2.77Z"/><path class="cls-4" d="M122.12,48.65c.01,1.51-1.17,2.73-2.69,2.77-1.54,.05-2.82-1.2-2.83-2.75,0-1.55,1.14-2.72,2.68-2.75,1.6-.03,2.82,1.14,2.84,2.72Z"/><path class="cls-4" d="M71.61,141.16c1.51-.02,2.68,1.12,2.67,2.6,0,1.45-1.24,2.68-2.66,2.66-1.4-.02-2.57-1.18-2.61-2.59-.04-1.49,1.1-2.66,2.6-2.67Z"/><path class="cls-4" d="M105.73,57.59c-1.51,0-2.65-1.12-2.64-2.62,0-1.47,1.19-2.6,2.69-2.58,1.45,.03,2.56,1.13,2.58,2.57,.02,1.48-1.12,2.62-2.63,2.62Z"/><path class="cls-4" d="M126.15,57.59c-1.52,0-2.62-1.13-2.59-2.64,.02-1.46,1.11-2.53,2.58-2.55,1.47-.02,2.69,1.15,2.7,2.6,0,1.45-1.18,2.6-2.68,2.6Z"/><path class="cls-4" d="M78.43,57.59c-1.53-.01-2.6-1.12-2.58-2.65,.02-1.51,1.16-2.58,2.7-2.54,1.45,.04,2.55,1.17,2.54,2.6-.01,1.51-1.13,2.61-2.66,2.59Z"/><path class="cls-4" d="M173.86,52.4c1.47-.02,2.6,1.05,2.65,2.51,.05,1.5-1.09,2.68-2.59,2.68-1.5,0-2.61-1.04-2.66-2.5-.05-1.49,1.08-2.67,2.6-2.69Z"/><path class="cls-4" d="M160.23,57.59c-1.52-.01-2.62-1.13-2.6-2.64,.02-1.49,1.18-2.59,2.7-2.55,1.41,.03,2.56,1.2,2.57,2.6,0,1.44-1.19,2.6-2.68,2.59Z"/><path class="cls-4" d="M133.04,57.59c-1.53,.02-2.65-1.06-2.68-2.57-.03-1.48,1.12-2.63,2.64-2.62,1.48,0,2.58,1.07,2.6,2.52,.03,1.54-1.03,2.65-2.56,2.67Z"/><path class="cls-4" d="M64.78,52.4c1.51-.03,2.67,1.09,2.67,2.59,0,1.44-1.09,2.57-2.52,2.61-1.52,.04-2.7-1.05-2.75-2.52-.04-1.46,1.11-2.65,2.6-2.67Z"/><path class="cls-4" d="M169.67,143.75c0,1.49-1.16,2.68-2.61,2.67-1.43,0-2.65-1.25-2.63-2.7,.02-1.43,1.15-2.55,2.59-2.57,1.51-.02,2.65,1.09,2.65,2.59Z"/><path class="cls-4" d="M114.04,186.3c0,1.54-1.1,2.62-2.63,2.59-1.51-.03-2.61-1.17-2.57-2.69,.04-1.43,1.15-2.53,2.6-2.55,1.49-.02,2.6,1.11,2.6,2.64Z"/><path class="cls-4" d="M139.8,57.59c-1.48,0-2.6-1.08-2.63-2.54-.03-1.48,1.13-2.65,2.64-2.66,1.49,0,2.66,1.18,2.62,2.67-.04,1.45-1.16,2.53-2.64,2.52Z"/><path class="cls-4" d="M112.55,52.4c1.51,0,2.63,1.15,2.61,2.65-.02,1.5-1.16,2.58-2.7,2.55-1.46-.03-2.54-1.12-2.54-2.58,0-1.52,1.11-2.62,2.63-2.62Z"/><path class="cls-4" d="M98.85,57.59c-1.51-.02-2.61-1.17-2.57-2.68,.04-1.45,1.15-2.51,2.62-2.52,1.52,0,2.63,1.11,2.62,2.63-.01,1.5-1.14,2.59-2.67,2.57Z"/><path class="cls-4" d="M2.79,188.89c-1.5,0-2.62-1.15-2.6-2.65,.02-1.44,1.15-2.57,2.57-2.58,1.49-.01,2.66,1.13,2.67,2.61,0,1.49-1.12,2.62-2.64,2.62Z"/><path class="cls-4" d="M119.4,141.16c1.51,.02,2.59,1.16,2.56,2.69-.03,1.43-1.19,2.57-2.59,2.58-1.41,0-2.69-1.28-2.67-2.68,.02-1.46,1.23-2.61,2.71-2.59Z"/><path class="cls-4" d="M48.02,192.66c0,1.4-1.1,2.48-2.51,2.47-1.36-.01-2.5-1.17-2.49-2.53,.01-1.36,1.17-2.48,2.55-2.46,1.41,.02,2.46,1.11,2.45,2.53Z"/><path class="cls-4" d="M91.89,192.65c-.01-1.43,1.03-2.5,2.44-2.52,1.39-.01,2.51,1.08,2.52,2.47,0,1.39-1.09,2.51-2.47,2.52-1.41,.01-2.48-1.05-2.49-2.47Z"/><path class="cls-4" d="M167.11,63.82c-1.42,.02-2.51-1.05-2.52-2.47,0-1.44,1.05-2.49,2.5-2.48,1.44,0,2.48,1.08,2.46,2.52-.01,1.35-1.08,2.41-2.44,2.43Z"/><path class="cls-4" d="M49.42,192.64c0-1.42,1.06-2.5,2.46-2.51,1.4,0,2.5,1.09,2.5,2.48,0,1.39-1.09,2.51-2.48,2.51-1.4,0-2.48-1.08-2.48-2.48Z"/><path class="cls-4" d="M85.23,63.82c-1.42-.02-2.44-1.08-2.42-2.53,.02-1.43,1.08-2.46,2.51-2.43,1.4,.03,2.51,1.16,2.48,2.52-.03,1.35-1.19,2.45-2.58,2.43Z"/><path class="cls-4" d="M94.57,61.29c.02,1.42-1.02,2.51-2.43,2.53-1.39,.02-2.52-1.05-2.57-2.43-.04-1.36,1.05-2.48,2.47-2.52,1.41-.04,2.51,1.01,2.53,2.42Z"/><path class="cls-4" d="M128.64,61.29c.02,1.45-.99,2.51-2.41,2.53-1.39,.02-2.54-1.06-2.58-2.42-.04-1.36,1.07-2.49,2.47-2.53,1.43-.04,2.5,.99,2.52,2.42Z"/><path class="cls-4" d="M153.4,63.82c-1.4-.02-2.46-1.11-2.44-2.52,.02-1.42,1.1-2.47,2.52-2.43,1.42,.03,2.5,1.13,2.48,2.51-.03,1.37-1.17,2.46-2.55,2.45Z"/><path class="cls-4" d="M162.75,61.38c-.02,1.41-1.11,2.46-2.53,2.44-1.38-.02-2.53-1.18-2.49-2.52,.04-1.36,1.18-2.45,2.57-2.43,1.41,.01,2.47,1.1,2.45,2.52Z"/><path class="cls-4" d="M6.74,192.61c0-1.4,1.08-2.48,2.49-2.48,1.37,0,2.53,1.16,2.51,2.51-.02,1.37-1.17,2.49-2.54,2.49-1.41,0-2.46-1.08-2.46-2.51Z"/><path class="cls-4" d="M18.05,192.58c.02,1.4-1.05,2.52-2.45,2.54-1.37,.02-2.54-1.09-2.57-2.46-.03-1.35,1.11-2.51,2.48-2.54,1.38-.03,2.51,1.07,2.54,2.45Z"/><path class="cls-4" d="M71.68,58.87c1.42,.01,2.47,1.08,2.45,2.51-.02,1.4-1.12,2.47-2.53,2.44-1.4-.02-2.49-1.14-2.47-2.52,.02-1.39,1.13-2.45,2.55-2.44Z"/><path class="cls-4" d="M80.93,61.35c0,1.42-1.09,2.49-2.51,2.47-1.36-.02-2.42-1.07-2.45-2.43-.03-1.43,1.04-2.51,2.47-2.52,1.44,0,2.49,1.04,2.49,2.48Z"/><path class="cls-4" d="M105.68,63.82c-1.39-.02-2.5-1.15-2.47-2.53,.03-1.37,1.17-2.45,2.56-2.43,1.39,.02,2.5,1.16,2.47,2.52-.03,1.38-1.16,2.45-2.56,2.43Z"/><path class="cls-4" d="M133.01,63.82c-1.43,.01-2.5-1.06-2.49-2.49,0-1.4,1-2.43,2.39-2.46,1.44-.04,2.54,1,2.57,2.42,.03,1.41-1.06,2.52-2.47,2.53Z"/><path class="cls-4" d="M139.77,63.82c-1.4-.01-2.47-1.11-2.45-2.51,.02-1.42,1.09-2.46,2.52-2.44,1.41,.02,2.5,1.13,2.48,2.51-.02,1.38-1.14,2.46-2.54,2.45Z"/><path class="cls-4" d="M58.29,190.13c1.38,.02,2.47,1.15,2.45,2.54-.02,1.37-1.18,2.48-2.55,2.45-1.38-.03-2.48-1.18-2.45-2.55,.04-1.39,1.16-2.47,2.55-2.45Z"/><path class="cls-4" d="M111.41,195.12c-1.37-.02-2.48-1.18-2.45-2.55,.03-1.39,1.17-2.48,2.55-2.44,1.4,.04,2.47,1.15,2.45,2.55-.02,1.37-1.17,2.47-2.55,2.44Z"/><path class="cls-4" d="M90.49,192.58c.02,1.4-1.06,2.52-2.44,2.54-1.36,.02-2.53-1.09-2.56-2.46-.03-1.37,1.09-2.51,2.47-2.54,1.4-.02,2.51,1.05,2.53,2.45Z"/><path class="cls-4" d="M5.3,192.63c0,1.37-1.14,2.5-2.5,2.5-1.39,0-2.5-1.12-2.49-2.5,0-1.4,1.1-2.49,2.5-2.49,1.38,0,2.5,1.11,2.5,2.49Z"/><path class="cls-4" d="M19.46,192.65c0-1.42,1.06-2.5,2.47-2.51,1.38-.01,2.52,1.1,2.53,2.47,.02,1.34-1.14,2.51-2.5,2.52-1.39,0-2.5-1.09-2.5-2.48Z"/><path class="cls-4" d="M98.94,63.82c-1.42,.02-2.49-1.03-2.5-2.44,0-1.45,1.01-2.5,2.43-2.51,1.43,0,2.52,1.05,2.53,2.44,.01,1.4-1.07,2.5-2.46,2.51Z"/><path class="cls-4" d="M115,61.35c0,1.44-1.07,2.49-2.51,2.47-1.4-.02-2.49-1.15-2.45-2.55,.03-1.36,1.09-2.38,2.48-2.4,1.43-.02,2.49,1.04,2.48,2.48Z"/><path class="cls-4" d="M173.93,63.82c-1.4,.03-2.51-1.03-2.54-2.44-.03-1.4,1.04-2.5,2.45-2.52,1.43-.01,2.53,1.04,2.55,2.43,.02,1.4-1.05,2.5-2.46,2.52Z"/><path class="cls-4" d="M79.17,192.65c-.01-1.39,1.08-2.52,2.46-2.52,1.42,0,2.5,1.06,2.5,2.47,0,1.44-1.04,2.51-2.45,2.52-1.4,.01-2.49-1.07-2.51-2.47Z"/><path class="cls-4" d="M136.81,190.13c1.39-.02,2.52,1.06,2.55,2.45,.03,1.37-1.08,2.52-2.46,2.54-1.4,.02-2.52-1.05-2.54-2.45-.02-1.39,1.07-2.52,2.45-2.54Z"/><path d="M64.75,63.82c-1.42-.03-2.41-1.09-2.38-2.55,.02-1.42,1.1-2.45,2.53-2.4,1.41,.04,2.48,1.16,2.42,2.55-.06,1.4-1.16,2.43-2.57,2.41Z"/><path d="M149.08,61.34c0,1.45-1.03,2.49-2.45,2.48-1.41,0-2.49-1.07-2.5-2.48-.01-1.39,1.07-2.47,2.5-2.48,1.42,0,2.46,1.03,2.46,2.47Z"/><path class="cls-4" d="M78.41,70.01c-1.33-.01-2.33-1.03-2.32-2.35,0-1.31,1.03-2.32,2.36-2.33,1.36-.01,2.45,1.08,2.4,2.42-.05,1.3-1.09,2.27-2.43,2.26Z"/><path class="cls-4" d="M98.87,70.01c-1.32-.01-2.35-1.04-2.34-2.34,0-1.29,1.05-2.33,2.36-2.34,1.38-.01,2.44,1.06,2.4,2.41-.04,1.31-1.07,2.28-2.41,2.27Z"/><path class="cls-4" d="M112.49,70.01c-1.34-.02-2.34-1.04-2.33-2.35,.01-1.31,1.04-2.32,2.37-2.32,1.36,0,2.44,1.1,2.39,2.43-.06,1.31-1.1,2.27-2.43,2.25Z"/><path class="cls-4" d="M75.27,196.6c1.31-.01,2.35,1.01,2.37,2.32,.03,1.29-1,2.37-2.29,2.41-1.35,.04-2.44-1.02-2.43-2.38,.01-1.31,1.03-2.34,2.34-2.35Z"/><path class="cls-4" d="M132.98,70.01c-1.31,0-2.36-1.02-2.37-2.31-.01-1.3,1.02-2.34,2.34-2.36,1.38-.02,2.44,1.03,2.42,2.38-.02,1.32-1.03,2.29-2.38,2.29Z"/><path class="cls-4" d="M146.66,70.01c-1.34,.02-2.37-.95-2.42-2.26-.05-1.33,1.04-2.42,2.4-2.41,1.32,.01,2.35,1.03,2.35,2.33,0,1.3-1.02,2.33-2.34,2.34Z"/><path class="cls-4" d="M64.85,70.01c-1.33,0-2.36-.98-2.39-2.28-.03-1.34,1.04-2.41,2.41-2.39,1.31,.02,2.35,1.07,2.34,2.35-.01,1.31-1.03,2.31-2.36,2.32Z"/><path class="cls-4" d="M66.77,199.02c-.02,1.3-1.08,2.34-2.37,2.32-1.29-.02-2.34-1.07-2.34-2.37,0-1.35,1.09-2.42,2.44-2.37,1.31,.04,2.29,1.09,2.27,2.41Z"/><path class="cls-4" d="M167.09,70.01c-1.32,0-2.37-.99-2.41-2.29-.03-1.28,1.01-2.36,2.32-2.39,1.39-.03,2.45,.99,2.44,2.36-.01,1.32-1.01,2.31-2.35,2.32Z"/><path class="cls-4" d="M.46,199c0-1.35,.96-2.37,2.27-2.4,1.34-.03,2.46,1.07,2.44,2.39-.02,1.29-1.08,2.35-2.37,2.35-1.29,0-2.34-1.04-2.35-2.34Z"/><path class="cls-4" d="M113.8,198.92c.02,1.33-.97,2.38-2.27,2.42-1.33,.04-2.45-1.05-2.45-2.39,0-1.29,1.05-2.34,2.35-2.35,1.32-.01,2.34,.99,2.36,2.32Z"/><path class="cls-4" d="M132.84,198.99c-.01,1.33-1.02,2.34-2.33,2.35-1.35,0-2.39-1.07-2.35-2.45,.03-1.3,1.09-2.31,2.39-2.28,1.31,.03,2.3,1.06,2.29,2.39Z"/><path class="cls-4" d="M153.43,70.01c-1.33,0-2.35-1-2.35-2.31,0-1.32,.99-2.33,2.31-2.36,1.39-.03,2.43,1,2.4,2.38-.02,1.33-1.02,2.29-2.37,2.29Z"/><path class="cls-4" d="M160.28,70.01c-1.35,0-2.35-.97-2.36-2.31,0-1.35,.97-2.35,2.32-2.37,1.34-.02,2.35,.98,2.36,2.32,0,1.35-.97,2.35-2.32,2.36Z"/><path class="cls-1" d="M25.7,198.86c.05-1.3,1.12-2.31,2.42-2.26,1.29,.05,2.34,1.14,2.31,2.41-.02,1.32-1.19,2.4-2.52,2.32-1.3-.08-2.26-1.15-2.22-2.47Z"/><path class="cls-1" d="M169.43,131.1c0,1.27-1.08,2.36-2.34,2.38-1.22,.02-2.38-1.1-2.41-2.35-.04-1.3,1.1-2.42,2.44-2.4,1.33,.03,2.33,1.04,2.32,2.36Z"/><path class="cls-4" d="M100.75,196.6c1.31,.03,2.33,1.08,2.32,2.38,0,1.34-1.13,2.41-2.47,2.35-1.3-.06-2.27-1.12-2.23-2.45,.03-1.33,1.07-2.32,2.38-2.29Z"/><path class="cls-4" d="M73.97,131.22c-.06,1.3-1.16,2.32-2.44,2.25-1.29-.07-2.29-1.16-2.24-2.46,.04-1.36,1.16-2.36,2.52-2.27,1.32,.08,2.22,1.12,2.16,2.49Z"/><path class="cls-4" d="M87.61,67.62c.02,1.38-.9,2.36-2.27,2.39-1.35,.03-2.38-.94-2.41-2.27-.03-1.34,.94-2.37,2.29-2.4,1.34-.03,2.37,.94,2.39,2.28Z"/><path class="cls-4" d="M92.08,70.01c-1.34,0-2.33-.98-2.34-2.32-.01-1.32,.98-2.34,2.31-2.36,1.39-.02,2.43,1,2.4,2.38-.02,1.31-1.04,2.3-2.37,2.29Z"/><path class="cls-4" d="M119.4,70.01c-1.34,.02-2.36-.95-2.4-2.26-.04-1.37,.98-2.42,2.37-2.41,1.33,0,2.34,1.01,2.34,2.33,0,1.34-.97,2.33-2.31,2.34Z"/><path class="cls-4" d="M126.21,70.01c-1.36,.01-2.37-.96-2.39-2.29-.02-1.33,.99-2.36,2.31-2.38,1.35-.02,2.37,.97,2.39,2.3,.02,1.33-.98,2.36-2.31,2.37Z"/><path class="cls-4" d="M142.13,67.64c.02,1.37-.92,2.35-2.28,2.37-1.36,.02-2.35-.93-2.37-2.29-.02-1.36,.93-2.36,2.28-2.39,1.35-.03,2.35,.94,2.37,2.3Z"/><path class="cls-4" d="M173.95,70.01c-1.36,.02-2.36-.91-2.4-2.24-.04-1.41,.94-2.42,2.34-2.43,1.32,0,2.35,1,2.37,2.31,.01,1.31-.99,2.34-2.31,2.36Z"/><path class="cls-4" d="M71.6,70.01c-1.35-.02-2.32-1.02-2.3-2.37,.02-1.34,1.03-2.33,2.38-2.3,1.36,.03,2.31,1.02,2.29,2.38-.02,1.36-1,2.31-2.37,2.29Z"/><path class="cls-4" d="M105.73,70.01c-1.36,0-2.32-.95-2.32-2.33,0-1.37,.95-2.35,2.31-2.35,1.36,0,2.33,.97,2.33,2.34,0,1.37-.96,2.33-2.32,2.34Z"/><path class="cls-1" d="M77.72,205.26c.03,1.15-.98,2.23-2.16,2.28-1.25,.06-2.32-.94-2.35-2.19-.03-1.21,.92-2.22,2.14-2.28,1.23-.06,2.34,.96,2.37,2.19Z"/><path class="cls-1" d="M111.46,207.55c-1.25,0-2.28-1.05-2.25-2.3,.03-1.21,1.03-2.18,2.25-2.18,1.2,0,2.21,.98,2.26,2.17,.04,1.22-1.01,2.3-2.25,2.3Z"/><path class="cls-1" d="M58.23,203.07c1.21,0,2.22,.96,2.25,2.17,.04,1.24-.99,2.3-2.24,2.3-1.2,0-2.22-.98-2.26-2.17-.04-1.22,1-2.29,2.25-2.3Z"/><path class="cls-1" d="M126.36,205.29c0,1.28-.99,2.28-2.25,2.26-1.21-.03-2.17-1-2.19-2.22-.02-1.25,1.01-2.27,2.28-2.25,1.23,.02,2.15,.97,2.16,2.22Z"/><path class="cls-1" d="M173.88,71.81c1.3,0,2.26,.97,2.24,2.26-.02,1.21-1,2.17-2.22,2.17-1.26,0-2.28-1.02-2.26-2.27,.02-1.19,1.04-2.17,2.24-2.17Z"/><path class="cls-1" d="M45.54,203.07c1.27,0,2.28,1.04,2.23,2.29-.04,1.23-1.02,2.18-2.23,2.18-1.27,0-2.24-1.01-2.21-2.3,.03-1.25,.98-2.19,2.21-2.18Z"/><path class="cls-1" d="M2.82,207.55c-1.23,.01-2.29-1.05-2.27-2.28,.02-1.18,1.04-2.18,2.24-2.19,1.22-.02,2.2,.92,2.24,2.16,.04,1.27-.94,2.3-2.21,2.32Z"/><path class="cls-4" d="M139.86,71.81c1.28,.03,2.24,1.06,2.18,2.32-.06,1.2-1.07,2.13-2.29,2.11-1.21-.02-2.19-1-2.19-2.21,0-1.24,1.04-2.25,2.3-2.22Z"/><path class="cls-4" d="M160.2,71.81c1.24-.03,2.22,.88,2.27,2.09,.05,1.28-.9,2.31-2.16,2.34-1.27,.03-2.27-.95-2.28-2.23-.01-1.22,.93-2.18,2.17-2.21Z"/><path class="cls-1" d="M155.69,73.99c.02,1.18-.96,2.2-2.16,2.26-1.26,.05-2.32-.93-2.33-2.18-.02-1.22,.91-2.2,2.14-2.25,1.28-.05,2.32,.92,2.35,2.18Z"/><path class="cls-4" d="M30.26,205.37c-.02,1.21-1,2.17-2.21,2.18-1.24,0-2.26-1.05-2.23-2.3,.03-1.2,1.03-2.17,2.23-2.17,1.27,0,2.23,1,2.21,2.29Z"/><path class="cls-4" d="M94.33,73.97c.02,1.27-.97,2.28-2.23,2.28-1.23,0-2.19-.94-2.21-2.16-.02-1.31,.91-2.27,2.21-2.27,1.23,0,2.21,.95,2.23,2.16Z"/><path class="cls-4" d="M126.16,71.81c1.29,0,2.26,.97,2.24,2.26-.02,1.21-.99,2.17-2.21,2.18-1.28,0-2.26-.98-2.23-2.26,.02-1.24,.96-2.16,2.2-2.17Z"/><path class="cls-4" d="M87.49,73.98c.02,1.27-.96,2.27-2.23,2.27-1.22,0-2.18-.96-2.21-2.18-.02-1.28,.95-2.27,2.24-2.26,1.24,0,2.18,.93,2.2,2.17Z"/><path class="cls-4" d="M121.56,74.03c-.01,1.29-1,2.25-2.28,2.21-1.22-.04-2.16-1.01-2.16-2.23,0-1.26,1.02-2.24,2.3-2.2,1.26,.04,2.15,.97,2.14,2.22Z"/><path class="cls-4" d="M51.93,203.08c1.26,.02,2.24,1.07,2.18,2.33-.05,1.22-1.05,2.16-2.26,2.14-1.26-.02-2.23-1.07-2.18-2.34,.05-1.22,1.04-2.16,2.26-2.14Z"/><path class="cls-4" d="M117.84,207.55c-1.21,.02-2.21-.93-2.26-2.15-.05-1.26,.94-2.31,2.2-2.32,1.22-.02,2.21,.93,2.25,2.15,.04,1.28-.93,2.31-2.19,2.33Z"/><path class="cls-4" d="M78.44,71.81c1.24-.01,2.2,.9,2.24,2.13,.04,1.28-.93,2.29-2.2,2.3-1.25,.02-2.28-1.01-2.26-2.26,.02-1.22,.98-2.16,2.22-2.17Z"/><path class="cls-4" d="M112.58,76.24c-1.26,.02-2.28-.99-2.28-2.24,0-1.22,.96-2.17,2.2-2.19,1.3-.02,2.27,.94,2.26,2.23,0,1.22-.96,2.19-2.18,2.2Z"/><path class="cls-4" d="M66.77,205.29c.01,1.29-.97,2.28-2.23,2.26-1.21-.02-2.16-.99-2.17-2.22-.01-1.27,.99-2.27,2.25-2.26,1.23,.02,2.14,.96,2.15,2.21Z"/><path class="cls-4" d="M67.01,74.01c0,1.3-.96,2.26-2.24,2.24-1.22-.02-2.15-.98-2.16-2.21,0-1.3,.97-2.25,2.26-2.22,1.27,.03,2.14,.91,2.14,2.2Z"/><path class="cls-4" d="M101.13,73.99c.02,1.27-.97,2.26-2.25,2.26-1.22,0-2.18-.96-2.19-2.19-.01-1.29,.95-2.26,2.25-2.25,1.25,.02,2.18,.94,2.19,2.18Z"/><path class="cls-4" d="M144.44,73.98c.02-1.33,.96-2.22,2.28-2.17,1.24,.05,2.14,1,2.11,2.25-.02,1.24-.96,2.17-2.19,2.19-1.28,.01-2.23-.96-2.21-2.26Z"/><path class="cls-1" d="M167.09,82.47c-1.1,.02-2.05-.89-2.09-2.01-.05-1.22,.8-2.15,2.01-2.18,1.19-.04,2.15,.86,2.18,2.03,.02,1.14-.94,2.14-2.09,2.16Z"/><path class="cls-1" d="M169.18,118.41c0,1.14-1.01,2.13-2.15,2.1-1.14-.03-2.02-.91-2.04-2.05-.02-1.21,.86-2.13,2.06-2.14,1.16-.01,2.13,.94,2.13,2.1Z"/><path class="cls-1" d="M112.5,82.47c-1.15-.02-2.1-1.03-2.05-2.18,.04-1.15,.93-2.01,2.08-2.01,1.2,0,2.15,.93,2.14,2.09-.01,1.14-1.03,2.13-2.16,2.1Z"/><path class="cls-1" d="M146.71,78.28c1.18,.06,2.11,1.07,2.03,2.2-.09,1.16-1.14,2.07-2.27,1.98-1.11-.09-1.98-1.05-1.95-2.17,.03-1.19,1-2.07,2.2-2.02Z"/><path class="cls-1" d="M64.79,82.47c-1.13-.02-2.13-1.06-2.09-2.18,.04-1.14,1.05-2.06,2.23-2.01,1.13,.04,2.01,.96,2.01,2.09,0,1.16-.99,2.12-2.14,2.1Z"/><path class="cls-1" d="M98.87,78.28c1.2-.02,2.13,.88,2.13,2.08,0,1.1-.9,2.06-2,2.11-1.12,.05-2.18-.92-2.22-2.05-.05-1.14,.91-2.12,2.1-2.14Z"/><path class="cls-1" d="M80.53,80.3c.03,1.19-.88,2.16-2.04,2.18-1.15,.02-2.12-.94-2.12-2.11,0-1.15,.85-2.04,1.99-2.08,1.22-.05,2.14,.81,2.17,2.01Z"/><path class="cls-1" d="M28.01,213.77c-1.16-.04-2.11-1.05-2.06-2.19,.05-1.16,1.07-2.1,2.21-2.03,1.2,.07,2.06,1.03,1.99,2.23-.06,1.11-1.05,2.03-2.13,2Z"/><path class="cls-1" d="M41.3,211.65c0,1.15-.99,2.13-2.13,2.12-1.14-.01-2.09-1.02-2.06-2.19,.02-1.12,.94-2.02,2.07-2.04,1.15-.02,2.13,.95,2.13,2.11Z"/><path class="cls-1" d="M132.6,211.69c-.03,1.17-1.04,2.14-2.16,2.09-1.16-.06-2.09-1.06-2.03-2.22,.05-1.11,1-2.02,2.11-2.01,1.18,0,2.12,.97,2.09,2.14Z"/><path class="cls-1" d="M119.36,110c1.23,0,2.1,.88,2.08,2.1-.02,1.19-.96,2.09-2.15,2.05-1.15-.03-2.03-.92-2.04-2.06-.02-1.17,.91-2.1,2.11-2.09Z"/><path class="cls-1" d="M119.41,103.61c1.15,.03,2.07,1.04,2.03,2.21-.04,1.11-.98,2.02-2.09,2.03-1.14,0-2.12-1-2.1-2.15,.02-1.15,1.02-2.12,2.17-2.08Z"/><path class="cls-1" d="M66.73,211.76c-.06,1.16-1.1,2.09-2.23,2.01-1.17-.09-2.04-1.11-1.95-2.28,.08-1.12,1.05-1.98,2.16-1.94,1.15,.04,2.08,1.06,2.02,2.21Z"/><path class="cls-4" d="M119.32,97.3c1.2-.01,2.12,.89,2.12,2.08,0,1.22-.88,2.08-2.11,2.08-1.16,0-2.04-.86-2.07-2-.03-1.19,.87-2.14,2.06-2.15Z"/><path class="cls-1" d="M119.41,116.31c1.19,.03,2.07,.98,2.04,2.17-.04,1.18-1.02,2.09-2.19,2.02-1.11-.06-2.02-1.02-2-2.12,.01-1.16,1-2.11,2.16-2.07Z"/><path class="cls-4" d="M126.2,82.47c-1.15,.02-2.11-.94-2.12-2.11,0-1.15,.85-2.03,2.01-2.08,1.18-.05,2.15,.86,2.19,2.03,.03,1.16-.91,2.14-2.08,2.16Z"/><path class="cls-4" d="M162.35,80.41c-.02,1.16-1.02,2.11-2.17,2.06-1.16-.05-2.08-1.05-2.02-2.21,.05-1.13,.97-1.99,2.11-1.98,1.2,.01,2.11,.94,2.08,2.13Z"/><path class="cls-4" d="M175.95,80.38c0,1.19-.94,2.13-2.1,2.1-1.17-.03-2.08-1-2.05-2.17,.03-1.14,.92-2,2.06-2.02,1.22-.01,2.09,.86,2.09,2.09Z"/><path class="cls-4" d="M139.86,82.47c-1.17,.03-2.13-.91-2.14-2.08,0-1.2,.9-2.12,2.09-2.11,1.17,0,2.03,.84,2.07,2,.03,1.21-.85,2.16-2.02,2.19Z"/><path class="cls-4" d="M73.73,80.43c-.03,1.16-1.01,2.09-2.18,2.04-1.13-.05-1.99-.96-1.98-2.1,0-1.22,.89-2.1,2.1-2.08,1.19,.02,2.08,.95,2.05,2.15Z"/><path class="cls-4" d="M111.51,209.55c1.17,.03,2.08,.99,2.04,2.17-.03,1.16-1.05,2.11-2.18,2.05-1.1-.06-1.97-1-1.96-2.13,0-1.23,.9-2.12,2.1-2.09Z"/><path class="cls-4" d="M119.39,122.68c1.21,.01,2.08,.92,2.05,2.13-.03,1.15-.89,2-2.05,2.01-1.2,.01-2.13-.9-2.13-2.07,0-1.17,.93-2.08,2.14-2.07Z"/><path class="cls-4" d="M121.44,80.31c.03,1.17-.91,2.15-2.06,2.16-1.16,0-2.13-.95-2.12-2.11,0-1.13,.88-2.03,2.02-2.08,1.21-.05,2.14,.82,2.17,2.03Z"/><path class="cls-4" d="M92.03,82.47c-1.15-.03-2.06-1.02-2.02-2.2,.04-1.15,.92-1.99,2.08-1.99,1.18,0,2.12,.95,2.1,2.12-.02,1.15-1.01,2.1-2.17,2.07Z"/><path class="cls-4" d="M77.57,211.7c-.02,1.12-.93,2.06-2.03,2.07-1.15,.01-2.12-.96-2.13-2.11,0-1.17,.95-2.12,2.11-2.11,1.19,.01,2.07,.94,2.04,2.15Z"/><path class="cls-4" d="M4.86,211.73c-.03,1.12-.97,2.05-2.06,2.05-1.16,0-2.11-.98-2.1-2.14,0-1.17,.98-2.11,2.14-2.08,1.19,.03,2.05,.96,2.02,2.18Z"/><path class="cls-4" d="M102.77,211.69c-.01,1.18-.99,2.13-2.13,2.08-1.11-.05-2.01-.98-2.02-2.1-.01-1.16,.94-2.13,2.1-2.13,1.19,0,2.07,.92,2.06,2.14Z"/><path class="cls-4" d="M73.73,118.37c.02,1.17-.94,2.17-2.08,2.16-1.16,0-2.08-.96-2.08-2.16,0-1.15,.86-2.03,2-2.07,1.18-.04,2.13,.88,2.15,2.06Z"/><path class="cls-1" d="M107.72,86.71c0,1.05-.94,1.96-2,1.96-1.06,0-1.99-.92-1.99-1.97,0-1.06,.91-1.95,2-1.95,1.09,0,1.99,.89,1.99,1.96Z"/><path class="cls-2" d="M71.6,101.37c-1.05-.03-1.97-.99-1.94-2.03,.03-1.04,1-1.97,2.03-1.94,1.04,.03,1.97,1.01,1.94,2.04-.03,1.04-1.01,1.97-2.04,1.94Z"/><path class="cls-1" d="M111.45,216.02c1.08,0,1.94,.85,1.95,1.96,0,1.12-.82,1.95-1.94,1.95-1.11,0-1.97-.85-1.98-1.94,0-1.06,.9-1.97,1.97-1.97Z"/><path class="cls-1" d="M89.97,218.03c-.02,1.07-.93,1.93-2.02,1.91-1.1-.02-1.97-.92-1.94-1.99,.03-1.07,.96-1.96,2.02-1.93,1.06,.03,1.96,.96,1.94,2.01Z"/><path class="cls-1" d="M4.78,218.05c-.03,1.08-.93,1.91-2.04,1.88-1.12-.03-1.91-.87-1.88-2.01,.03-1.1,.92-1.95,2.01-1.91,1.07,.04,1.95,.97,1.91,2.03Z"/><path class="cls-1" d="M58.21,216.02c1.07,0,1.98,.88,2,1.94,.02,1.09-.84,1.96-1.94,1.97-1.13,.01-1.96-.8-1.98-1.92-.01-1.1,.84-1.99,1.92-2Z"/><path class="cls-1" d="M173.87,88.67c-1.1-.01-1.93-.87-1.92-1.99,.01-1.13,.84-1.94,1.97-1.93,1.1,.01,1.97,.9,1.95,1.97-.02,1.07-.93,1.96-2,1.94Z"/><path class="cls-2" d="M105.73,107.68c-1.08,0-2-.9-2-1.95,0-1.07,.9-1.96,1.99-1.96,1.08,0,2,.88,2,1.94,0,1.05-.92,1.96-1.99,1.97Z"/><path class="cls-2" d="M141.8,92.99c.03,1.07-.84,1.97-1.94,1.99-1.1,.02-2-.81-2.03-1.9-.04-1.06,.85-1.96,1.94-1.98,1.12-.02,2,.8,2.03,1.89Z"/><path class="cls-1" d="M45.5,219.93c-1.11-.01-1.95-.88-1.92-1.98,.03-1.09,.92-1.95,2-1.93,1.07,.02,1.94,.92,1.92,2-.02,1.1-.88,1.93-2,1.91Z"/><path class="cls-1" d="M139.8,88.67c-1.05,0-2-.94-1.99-1.98,0-1.05,.93-1.95,2.01-1.94,1.08,0,1.98,.9,1.98,1.96,0,1.05-.94,1.96-2,1.95Z"/><path class="cls-2" d="M71.67,94.98c-1.1,.01-2-.85-2.01-1.91-.01-1.09,.84-1.95,1.96-1.96,1.11-.01,1.99,.83,2.01,1.91,.02,1.08-.85,1.95-1.96,1.97Z"/><path class="cls-1" d="M73.64,86.71c0,1.04-.95,1.96-2,1.96-1.06,0-1.98-.93-1.98-1.97,0-1.06,.92-1.94,2-1.94,1.08,0,1.99,.9,1.99,1.96Z"/><path class="cls-1" d="M92.08,84.75c1.11,0,1.96,.84,1.96,1.95,0,1.08-.88,1.97-1.95,1.97-1.09,0-1.96-.86-1.97-1.96,0-1.1,.85-1.96,1.96-1.96Z"/><path class="cls-1" d="M148.56,86.65c.02,1.12-.78,1.99-1.88,2.02-1.1,.04-1.97-.79-2-1.9-.03-1.13,.77-1.99,1.88-2.01,1.12-.03,1.97,.78,2,1.89Z"/><path class="cls-1" d="M121.32,86.68c.02,1.09-.84,1.98-1.93,1.99-1.08,.02-1.97-.85-1.99-1.93-.02-1.11,.82-1.97,1.93-1.98,1.12-.02,1.97,.81,1.99,1.92Z"/><path class="cls-1" d="M114.48,112.08c0,1.1-.85,1.93-1.97,1.93-1.11,0-1.93-.85-1.91-1.98,.01-1.11,.87-1.97,1.97-1.95,1.09,.02,1.92,.88,1.91,2Z"/><path class="cls-2" d="M105.73,97.38c1.02,0,2,.99,1.98,2.01-.01,1.05-.95,1.98-2,1.97-1.05,0-1.99-.95-1.99-1.99,0-1.02,.99-2,2.01-1.99Z"/><path class="cls-1" d="M134.92,99.39c0,1.12-.85,1.98-1.94,1.98-1.08,0-1.95-.89-1.94-1.99,0-1.08,.9-1.98,1.95-1.98,1.08,0,1.93,.88,1.93,1.99Z"/><path class="cls-1" d="M126.15,88.67c-1.08-.01-1.96-.91-1.95-1.99,.01-1.1,.88-1.94,1.99-1.93,1.09,.01,1.98,.91,1.96,1.97-.01,1.05-.95,1.96-2,1.94Z"/><path class="cls-1" d="M66.77,86.65c.02,1.12-.78,1.99-1.89,2.02-1.1,.03-1.97-.8-1.99-1.91-.03-1.13,.77-1.98,1.88-2.01,1.12-.02,1.97,.78,2,1.9Z"/><path class="cls-1" d="M162.23,86.66c.02,1.07-.86,1.98-1.93,2.01-1.08,.03-1.99-.84-2.01-1.92-.02-1.1,.83-1.98,1.92-2,1.1-.02,2,.82,2.02,1.91Z"/><path class="cls-1" d="M100.85,86.8c-.04,1.11-.92,1.92-2.02,1.87-1.09-.05-1.9-.94-1.85-2.05,.04-1.1,.92-1.91,2.03-1.86,1.12,.05,1.89,.9,1.84,2.04Z"/><path class="cls-1" d="M168.99,86.76c-.02,1.12-.88,1.94-1.98,1.91-1.1-.04-1.92-.91-1.9-2.02,.03-1.1,.89-1.92,2.01-1.9,1.12,.02,1.89,.86,1.87,2.01Z"/><path class="cls-1" d="M112.57,88.67c-1.12,.02-1.95-.8-1.97-1.93-.02-1.15,.77-1.97,1.9-1.99,1.12-.01,1.97,.81,1.98,1.92,.02,1.1-.82,1.98-1.91,2Z"/><path class="cls-2" d="M105.68,91.11c1.11-.02,2.01,.82,2.04,1.89,.03,1.06-.86,1.96-1.95,1.99-1.1,.02-2.02-.83-2.04-1.9-.02-1.08,.84-1.96,1.95-1.98Z"/><path class="cls-1" d="M119.41,91.11c1.11,.02,1.95,.89,1.91,1.98-.04,1.11-.9,1.92-2.01,1.89-1.12-.03-1.93-.87-1.9-1.99,.03-1.11,.89-1.91,2-1.89Z"/><path class="cls-4" d="M128.15,105.7c.02,1.07-.87,1.96-1.95,1.98-1.1,.01-1.98-.84-1.99-1.93-.01-1.08,.86-1.97,1.94-1.98,1.1,0,1.99,.85,2,1.93Z"/><path class="cls-1" d="M81.63,216.02c1.1,0,1.93,.84,1.93,1.97,0,1.14-.81,1.95-1.93,1.95-1.13,0-1.94-.83-1.94-1.95,0-1.1,.85-1.96,1.95-1.96Z"/><path class="cls-4" d="M128.15,93.08c-.03,1.09-.9,1.91-2.01,1.9-1.1-.01-1.96-.9-1.93-1.98,.03-1.11,.89-1.91,2.01-1.89,1.11,.02,1.96,.89,1.94,1.97Z"/><path class="cls-1" d="M138.82,217.96c.02,1.1-.83,1.96-1.94,1.97-1.11,0-1.98-.83-2-1.92-.02-1.06,.87-1.98,1.95-2,1.07-.02,1.98,.87,1.99,1.94Z"/><path class="cls-1" d="M168.99,99.38c0,1.14-.81,1.98-1.92,1.99-1.05,0-1.96-.91-1.96-1.98,0-1.07,.9-1.99,1.95-1.99,1.09,0,1.93,.86,1.93,1.97Z"/><path class="cls-1" d="M78.46,88.67c-1.11,0-1.93-.84-1.93-1.96,0-1.14,.8-1.96,1.93-1.95,1.11,0,1.95,.84,1.95,1.95,0,1.1-.85,1.96-1.95,1.97Z"/><path class="cls-1" d="M131.04,86.66c.02-1.1,.89-1.93,2-1.91,1.13,.02,1.9,.85,1.88,2-.02,1.12-.87,1.95-1.98,1.92-1.09-.03-1.92-.9-1.9-2.01Z"/><path class="cls-1" d="M168.99,92.95c-.02,1.13-.88,1.98-1.97,1.94-1.06-.03-1.94-.97-1.91-2.04,.03-1.06,.97-1.98,2-1.95,1.08,.03,1.9,.92,1.88,2.04Z"/><path class="cls-1" d="M28.05,216.02c1.06,0,1.97,.9,1.97,1.97,0,1.1-.86,1.95-1.97,1.95-1.1,0-1.97-.86-1.97-1.95,0-1.07,.89-1.97,1.97-1.97Z"/><path class="cls-1" d="M51.85,216.02c1.1-.02,1.95,.8,1.97,1.93,.02,1.14-.77,1.97-1.89,1.98-1.12,.01-1.97-.81-1.99-1.91-.01-1.11,.81-1.98,1.91-2Z"/><path class="cls-1" d="M66.6,218.05c-.03,1.1-.92,1.92-2.03,1.88-1.1-.04-1.94-.92-1.91-2.01,.03-1.06,.98-1.94,2.04-1.91,1.06,.03,1.93,.96,1.9,2.04Z"/><path class="cls-1" d="M126.13,114.01c-1.1-.02-1.94-.9-1.91-2,.03-1.08,.95-1.96,2.01-1.93,1.05,.03,1.95,.98,1.93,2.03-.02,1.07-.93,1.92-2.03,1.9Z"/><path class="cls-4" d="M132.99,103.77c1.12,0,1.93,.83,1.92,1.96,0,1.13-.82,1.95-1.94,1.94-1.11,0-1.94-.85-1.94-1.96,0-1.11,.85-1.95,1.95-1.94Z"/><path class="cls-4" d="M114.48,105.78c-.02,1.12-.87,1.93-1.99,1.9-1.11-.03-1.91-.88-1.89-2.01,.02-1.11,.88-1.93,1.99-1.9,1.12,.03,1.91,.87,1.89,2.01Z"/><path class="cls-4" d="M100.84,93.07c0,1.13-.83,1.93-1.96,1.91-1.14-.01-1.93-.83-1.91-1.96,.01-1.12,.84-1.92,1.96-1.91,1.13,.01,1.92,.82,1.91,1.96Z"/><path class="cls-4" d="M114.48,93c.03,1.13-.76,1.96-1.9,1.98-1.14,.02-1.97-.76-1.98-1.89-.02-1.15,.76-1.96,1.89-1.98,1.12-.02,1.96,.77,1.99,1.89Z"/><path class="cls-1" d="M94.33,216.02c1.09-.03,1.96,.82,1.99,1.92,.02,1.12-.79,1.97-1.9,1.99-1.11,.02-1.99-.81-2.01-1.9-.02-1.08,.85-1.98,1.92-2.01Z"/><path class="cls-4" d="M133.04,94.98c-1.14,.02-1.97-.76-2-1.89-.03-1.12,.78-1.96,1.9-1.99,1.14-.03,1.96,.75,1.98,1.89,.02,1.15-.75,1.97-1.88,1.99Z"/></svg>